<!-- Generated by IcoMoon.io -->
<svg version="1.1" xmlns="http://www.w3.org/2000/svg" width="39" height="32" viewBox="0 0 39 32">
<title>envelope</title>
<path d="M35.692 0h-32c-2.036 0-3.692 1.76-3.692 3.924v23.537c0 2.166 1.657 3.924 3.692 3.924h32c2.036 0 3.692-1.76 3.692-3.924v-23.537c0-2.166-1.657-3.924-3.692-3.924zM35.692 2.614c0.167 0 0.327 0.037 0.473 0.103l-16.473 15.168-16.473-15.168c0.139-0.064 0.301-0.102 0.472-0.103h32zM35.692 28.768h-32c-0.679 0-1.231-0.586-1.231-1.305v-21.982l16.423 15.121c0.211 0.196 0.495 0.316 0.807 0.316s0.596-0.12 0.808-0.317l-0.001 0.001 16.423-15.124v21.982c0 0.721-0.551 1.307-1.231 1.307z"></path>
</svg>
